<svg width="30" height="29" viewBox="0 0 30 29" fill="none" xmlns="http://www.w3.org/2000/svg"><path d="M15 0C6.71625 0 0 6.49238 0 14.5C0 22.5076 6.71625 29 15 29C23.2837 29 30 22.5076 30 14.5C30 6.49238 23.2837 0 15 0ZM12.5 19.3333H10V12.0833H12.5V19.3333ZM11.25 11.0067C10.4913 11.0067 9.875 10.4074 9.875 9.66667C9.875 8.92717 10.49 8.32663 11.25 8.32663C12.01 8.32663 12.625 8.92717 12.625 9.66667C12.625 10.4074 12.0087 11.0067 11.25 11.0067ZM21.25 19.3333H18.7525V15.8763C18.7525 13.6034 16.25 13.7955 16.25 15.8763V19.3333H13.75V12.0833H16.25V13.404C17.34 11.4514 21.25 11.3064 21.25 15.2745V19.3333Z" fill="currentColor"/></svg>
