<svg width="30" height="29" viewBox="0 0 30 29" fill="none" xmlns="http://www.w3.org/2000/svg"><path d="M15 0C6.71625 0 0 6.49238 0 14.5C0 22.5076 6.71625 29 15 29C23.2837 29 30 22.5076 30 14.5C30 6.49238 23.2837 0 15 0ZM22.5825 11.6544C22.8112 16.536 19.045 21.9784 12.3775 21.9784C10.35 21.9784 8.46375 21.4032 6.875 20.4184C8.78 20.6359 10.6812 20.1236 12.19 18.9817C10.62 18.9539 9.29375 17.9498 8.835 16.5711C9.39875 16.675 9.95375 16.6448 10.4575 16.5119C8.73125 16.176 7.53875 14.6728 7.5775 13.0645C8.0625 13.3243 8.615 13.4802 9.20375 13.4983C7.605 12.4652 7.1525 10.4243 8.0925 8.86433C9.8625 10.9644 12.5087 12.3455 15.4925 12.4905C14.9688 10.3204 16.6725 8.22875 18.9912 8.22875C20.0225 8.22875 20.9562 8.65046 21.6112 9.32471C22.4287 9.17004 23.1988 8.88004 23.8913 8.4825C23.6225 9.29329 23.0538 9.97238 22.3125 10.4025C23.0388 10.318 23.7313 10.1319 24.3738 9.85517C23.8938 10.5536 23.2863 11.165 22.5825 11.6544V11.6544Z" fill="currentColor"/></svg>
